<svg xmlns="http://www.w3.org/2000/svg" width="700" height="406" viewBox="0 0 700 406">
  <defs>
    <style>
      .cls-1 {
        fill: rgba(243,251,26,0.81);
      }
    </style>
  </defs>
  <g id="그룹_61" data-name="그룹 61" transform="translate(-615.409 -1050.262)">
    <path id="패스_3" data-name="패스 3" class="cls-1" d="M5.4,33.812H117.373L105.231,22.029c.9-.512,14.84-6.66,14.84-6.66L105.231,6.66,117.373,0H0L10.793,6.66,2.7,15.369l8.095,6.66Z" transform="matrix(0.848, -0.53, 0.53, 0.848, 615.409, 1113.89)"/>
    <path id="패스_4" data-name="패스 4" class="cls-1" d="M5.4,33.812H117.373L105.231,22.029c.9-.512,14.84-6.66,14.84-6.66L105.231,6.66,117.373,0H0L10.793,6.66,2.7,15.369l8.095,6.66Z" transform="matrix(0.848, -0.53, 0.53, 0.848, 1195.665, 1427.588)"/>
  </g>
</svg>
